<svg width="41" height="42" viewBox="0 0 41 42" fill="none" xmlns="http://www.w3.org/2000/svg">
<rect width="41" height="42" fill="#ECECE4"/>
<path d="M34.1667 15.75H18.7917C16.9047 15.75 15.375 17.317 15.375 19.25V35C15.375 36.933 16.9047 38.5 18.7917 38.5H34.1667C36.0536 38.5 37.5833 36.933 37.5833 35V19.25C37.5833 17.317 36.0536 15.75 34.1667 15.75Z" stroke="#8A8782" stroke-width="2" stroke-linecap="round" stroke-linejoin="round"/>
<path d="M8.54167 26.25H6.83334C5.92718 26.25 5.05814 25.8813 4.41739 25.2249C3.77664 24.5685 3.41667 23.6783 3.41667 22.75V7C3.41667 6.07174 3.77664 5.1815 4.41739 4.52513C5.05814 3.86875 5.92718 3.5 6.83334 3.5H22.2083C23.1145 3.5 23.9835 3.86875 24.6243 4.52513C25.265 5.1815 25.625 6.07174 25.625 7V8.75" stroke="#8A8782" stroke-width="2" stroke-linecap="round" stroke-linejoin="round"/>
</svg>
