<svg width="88" height="78" viewBox="0 0 88 78" fill="none" xmlns="http://www.w3.org/2000/svg">
<rect width="88" height="78" fill="#040404"/>
<path d="M33 61.75C14.6667 66.625 14.6667 53.625 7.33333 52M58.6667 71.5V58.9225C58.8042 57.3728 58.568 55.8149 57.9737 54.3523C57.3795 52.8898 56.4407 51.5561 55.22 50.44C66.7333 49.3025 78.8333 45.435 78.8333 27.69C78.8324 23.1524 76.8632 18.7889 73.3333 15.5025C75.0048 11.5326 74.8866 7.14463 73.0033 3.25C73.0033 3.25 68.6767 2.1125 58.6667 8.06C50.2627 6.04117 41.404 6.04117 33 8.06C22.99 2.1125 18.6633 3.25 18.6633 3.25C16.78 7.14463 16.6619 11.5326 18.3333 15.5025C14.7771 18.8133 12.8059 23.2163 12.8333 27.7875C12.8333 45.4025 24.9333 49.27 36.4467 50.5375C35.2403 51.6424 34.31 52.9601 33.7161 54.4047C33.1223 55.8494 32.8783 57.3887 33 58.9225V71.5" stroke="#7C7C7C" stroke-width="2" stroke-linecap="round" stroke-linejoin="round"/>
</svg>
