<svg width="80" height="70" viewBox="0 0 80 70" fill="none" xmlns="http://www.w3.org/2000/svg">
<rect width="80" height="70" fill="#040404"/>
<path d="M75.5 41.9708L40 64.5458L4.49999 41.9708C4.02408 41.6646 3.67106 41.2345 3.49144 40.742C3.31183 40.2496 3.31482 39.72 3.49999 39.2292L7.56666 28.2042L15.7 6.3C15.7789 6.12152 15.9045 5.96169 16.0667 5.83333C16.3308 5.62223 16.6756 5.50518 17.0333 5.50518C17.3911 5.50518 17.7359 5.62223 18 5.83333C18.1713 5.97819 18.2975 6.15889 18.3667 6.35833L26.5 28.2042H53.5L61.6333 6.3C61.7122 6.12152 61.8378 5.96169 62 5.83333C62.2641 5.62223 62.6089 5.50518 62.9667 5.50518C63.3244 5.50518 63.6692 5.62223 63.9333 5.83333C64.1046 5.97819 64.2308 6.15889 64.3 6.35833L72.4333 28.2625L76.6667 39.2292C76.8351 39.7352 76.8125 40.2752 76.6023 40.7691C76.3922 41.263 76.0056 41.6844 75.5 41.9708Z" stroke="#7C7C7C" stroke-width="2" stroke-linecap="round" stroke-linejoin="round"/>
</svg>
