<svg width="71" height="73" viewBox="0 0 71 73" fill="none" xmlns="http://www.w3.org/2000/svg">
<rect width="71" height="73" fill="#040404"/>
<path d="M50.2917 6.08334H20.7083C12.5391 6.08334 5.91667 12.8923 5.91667 21.2917V51.7083C5.91667 60.1077 12.5391 66.9167 20.7083 66.9167H50.2917C58.4609 66.9167 65.0833 60.1077 65.0833 51.7083V21.2917C65.0833 12.8923 58.4609 6.08334 50.2917 6.08334Z" stroke="#7C7C7C" stroke-width="2" stroke-linecap="round" stroke-linejoin="round"/>
<path d="M47.3333 34.5838C47.6984 37.1152 47.2779 39.7005 46.1315 41.972C44.9852 44.2435 43.1714 46.0855 40.9481 47.2361C38.7249 48.3866 36.2054 48.7871 33.748 48.3805C31.2907 47.974 29.0205 46.7811 27.2606 44.9715C25.5006 43.162 24.3404 40.8279 23.9449 38.3013C23.5495 35.7747 23.939 33.1843 25.058 30.8984C26.1771 28.6125 27.9686 26.7476 30.1779 25.569C32.3872 24.3903 34.9017 23.958 37.3637 24.3333C39.8751 24.7162 42.2002 25.9195 43.9954 27.7653C45.7907 29.6111 46.9609 32.0016 47.3333 34.5838Z" stroke="#7C7C7C" stroke-width="2" stroke-linecap="round" stroke-linejoin="round"/>
<path d="M51.7708 19.7708H51.8" stroke="#7C7C7C" stroke-width="2" stroke-linecap="round" stroke-linejoin="round"/>
</svg>
